<?xml version="1.0" encoding="UTF-8" standalone="no"?>
<!DOCTYPE svg PUBLIC "-//W3C//DTD SVG 1.1//EN"
 "http://www.w3.org/Graphics/SVG/1.1/DTD/svg11.dtd">
<!-- Generated by graphviz version 12.2.1 (20241206.2353)
 -->
<!-- Pages: 1 -->
<svg width="1548pt" height="591pt"
 viewBox="0.00 0.00 1547.75 590.75" xmlns="http://www.w3.org/2000/svg" xmlns:xlink="http://www.w3.org/1999/xlink">
<g id="graph0" class="graph" transform="scale(1 1) rotate(0) translate(4 586.75)">
<polygon fill="white" stroke="none" points="-4,4 -4,-586.75 1543.75,-586.75 1543.75,4 -4,4"/>
<!-- 2 -->
<g id="node1" class="node">
<title>2</title>
<polygon fill="#fff8dc" stroke="none" points="0,-122.88 0,-143.62 130,-143.62 130,-122.88 0,-122.88"/>
<polygon fill="none" stroke="black" points="0,-122.88 0,-143.62 130,-143.62 130,-122.88 0,-122.88"/>
<text text-anchor="start" x="10.25" y="-131.12" font-family="Courier,monospace" font-size="8.00">Config:</text>
<text text-anchor="start" x="41.75" y="-131.12" font-family="Courier,monospace" font-size="10.00"> ConvGruModel</text>
<polygon fill="#eeeeee" stroke="none" points="0,-102.12 0,-122.88 92,-122.88 92,-102.12 0,-102.12"/>
<polygon fill="none" stroke="black" points="0,-102.12 0,-122.88 92,-122.88 92,-102.12 0,-102.12"/>
<text text-anchor="start" x="4" y="-109.38" font-family="Courier,monospace" font-size="10.00">input_channels</text>
<polygon fill="none" stroke="black" points="92,-102.12 92,-122.88 130,-122.88 130,-102.12 92,-102.12"/>
<text text-anchor="start" x="96" y="-109.38" font-family="Courier,monospace" font-size="10.00">1</text>
<polygon fill="#eeeeee" stroke="none" points="0,-81.38 0,-102.12 92,-102.12 92,-81.38 0,-81.38"/>
<polygon fill="none" stroke="black" points="0,-81.38 0,-102.12 92,-102.12 92,-81.38 0,-81.38"/>
<text text-anchor="start" x="28" y="-88.62" font-family="Courier,monospace" font-size="10.00">num_blocks</text>
<polygon fill="none" stroke="black" points="92,-81.38 92,-102.12 130,-102.12 130,-81.38 92,-81.38"/>
<text text-anchor="start" x="96" y="-88.62" font-family="Courier,monospace" font-size="10.00">5</text>
<polygon fill="#eeeeee" stroke="none" points="0,-60.62 0,-81.38 92,-81.38 92,-60.62 0,-60.62"/>
<polygon fill="none" stroke="black" points="0,-60.62 0,-81.38 92,-81.38 92,-60.62 0,-60.62"/>
<text text-anchor="start" x="10" y="-67.88" font-family="Courier,monospace" font-size="10.00">noisy_decoder</text>
<polygon fill="none" stroke="black" points="92,-60.62 92,-81.38 130,-81.38 130,-60.62 92,-60.62"/>
<text text-anchor="start" x="96" y="-67.88" font-family="Courier,monospace" font-size="10.00">False</text>
</g>
<!-- 1 -->
<g id="node2" class="node">
<title>1</title>
<polygon fill="#90ee90" stroke="none" points="82,-428.62 82,-449.38 318,-449.38 318,-428.62 82,-428.62"/>
<polygon fill="none" stroke="black" points="82,-428.62 82,-449.38 318,-449.38 318,-428.62 82,-428.62"/>
<text text-anchor="start" x="115.25" y="-436.88" font-family="Courier,monospace" font-size="8.00">Config:</text>
<text text-anchor="start" x="146.75" y="-436.88" font-family="Courier,monospace" font-size="10.00"> NowcastLightningModule</text>
<polygon fill="#eeeeee" stroke="none" points="82,-407.88 82,-428.62 168,-428.62 168,-407.88 82,-407.88"/>
<polygon fill="none" stroke="black" points="82,-407.88 82,-428.62 168,-428.62 168,-407.88 82,-407.88"/>
<text text-anchor="start" x="122" y="-415.12" font-family="Courier,monospace" font-size="10.00">network</text>
<polygon fill="none" stroke="black" points="168,-407.88 168,-428.62 318,-428.62 318,-407.88 168,-407.88"/>
<polygon fill="#fff8dc" stroke="none" points="172,-411.88 172,-424.62 314,-424.62 314,-411.88 172,-411.88"/>
<polygon fill="none" stroke="black" points="172,-411.88 172,-424.62 314,-424.62 314,-411.88 172,-411.88"/>
<polygon fill="#eeeeee" stroke="none" points="82,-387.12 82,-407.88 168,-407.88 168,-387.12 82,-387.12"/>
<polygon fill="none" stroke="black" points="82,-387.12 82,-407.88 168,-407.88 168,-387.12 82,-387.12"/>
<text text-anchor="start" x="86" y="-394.38" font-family="Courier,monospace" font-size="10.00">ensemble_size</text>
<polygon fill="none" stroke="black" points="168,-387.12 168,-407.88 318,-407.88 318,-387.12 168,-387.12"/>
<text text-anchor="start" x="172" y="-394.38" font-family="Courier,monospace" font-size="10.00">2</text>
<polygon fill="#eeeeee" stroke="none" points="82,-366.38 82,-387.12 168,-387.12 168,-366.38 82,-366.38"/>
<polygon fill="none" stroke="black" points="82,-366.38 82,-387.12 168,-387.12 168,-366.38 82,-366.38"/>
<text text-anchor="start" x="104" y="-373.62" font-family="Courier,monospace" font-size="10.00">loss_class</text>
<polygon fill="none" stroke="black" points="168,-366.38 168,-387.12 318,-387.12 318,-366.38 168,-366.38"/>
<text text-anchor="start" x="172" y="-373.62" font-family="Courier,monospace" font-size="10.00">&#39;crps&#39;</text>
<polygon fill="#eeeeee" stroke="none" points="82,-316.88 82,-366.38 168,-366.38 168,-316.88 82,-316.88"/>
<polygon fill="none" stroke="black" points="82,-316.88 82,-366.38 168,-366.38 168,-316.88 82,-316.88"/>
<text text-anchor="start" x="98" y="-338.5" font-family="Courier,monospace" font-size="10.00">loss_params</text>
<polygon fill="none" stroke="black" points="168,-316.88 168,-366.38 318,-366.38 318,-316.88 168,-316.88"/>
<polygon fill="#eeeeee" stroke="none" points="172,-341.62 172,-362.38 314,-362.38 314,-341.62 172,-341.62"/>
<polygon fill="none" stroke="black" points="172,-341.62 172,-362.38 314,-362.38 314,-341.62 172,-341.62"/>
<text text-anchor="start" x="231" y="-348.88" font-family="Courier,monospace" font-size="10.00">dict</text>
<polygon fill="#eeeeee" stroke="none" points="172,-320.88 172,-341.62 282,-341.62 282,-320.88 172,-320.88"/>
<polygon fill="none" stroke="black" points="172,-320.88 172,-341.62 282,-341.62 282,-320.88 172,-320.88"/>
<text text-anchor="start" x="176" y="-328.12" font-family="Courier,monospace" font-size="10.00">&#39;temporal_lambda&#39;</text>
<polygon fill="none" stroke="black" points="282,-320.88 282,-341.62 314,-341.62 314,-320.88 282,-320.88"/>
<text text-anchor="start" x="286" y="-328.12" font-family="Courier,monospace" font-size="10.00">0.01</text>
<polygon fill="#eeeeee" stroke="none" points="82,-296.12 82,-316.88 168,-316.88 168,-296.12 82,-296.12"/>
<polygon fill="none" stroke="black" points="82,-296.12 82,-316.88 168,-316.88 168,-296.12 82,-296.12"/>
<text text-anchor="start" x="98" y="-303.38" font-family="Courier,monospace" font-size="10.00">masked_loss</text>
<polygon fill="none" stroke="black" points="168,-296.12 168,-316.88 318,-316.88 318,-296.12 168,-296.12"/>
<text text-anchor="start" x="172" y="-303.38" font-family="Courier,monospace" font-size="10.00">True</text>
<polygon fill="#eeeeee" stroke="none" points="82,-275.38 82,-296.12 168,-296.12 168,-275.38 82,-275.38"/>
<polygon fill="none" stroke="black" points="82,-275.38 82,-296.12 168,-296.12 168,-275.38 82,-275.38"/>
<text text-anchor="start" x="110" y="-282.62" font-family="Courier,monospace" font-size="10.00">optimizer</text>
<polygon fill="none" stroke="black" points="168,-275.38 168,-296.12 318,-296.12 318,-275.38 168,-275.38"/>
<polygon fill="#ffa07a" stroke="none" points="172,-279.38 172,-292.12 314,-292.12 314,-279.38 172,-279.38"/>
<polygon fill="none" stroke="black" stroke-dasharray="5,2" points="172,-279.38 172,-292.12 314,-292.12 314,-279.38 172,-279.38"/>
<polygon fill="#eeeeee" stroke="none" stroke-dasharray="5,2" points="82,-254.62 82,-275.38 168,-275.38 168,-254.62 82,-254.62"/>
<polygon fill="none" stroke="black" points="82,-254.62 82,-275.38 168,-275.38 168,-254.62 82,-254.62"/>
<text text-anchor="start" x="92" y="-261.88" font-family="Courier,monospace" font-size="10.00">lr_scheduler</text>
<polygon fill="none" stroke="black" points="168,-254.62 168,-275.38 318,-275.38 318,-254.62 168,-254.62"/>
<polygon fill="#add8e6" stroke="none" points="172,-258.62 172,-271.38 314,-271.38 314,-258.62 172,-258.62"/>
<polygon fill="none" stroke="black" stroke-dasharray="5,2" points="172,-258.62 172,-271.38 314,-271.38 314,-258.62 172,-258.62"/>
</g>
<!-- 1&#45;&#45;2 -->
<g id="edge1" class="edge">
<title>1:c&#45;&#45;2:c</title>
<path fill="none" stroke="#cbc6b0" stroke-width="3" stroke-opacity="0.501961" d="M240.2,-412.32C223.04,-382.03 131.28,-220.08 87.83,-143.42"/>
</g>
<!-- 3 -->
<g id="node3" class="node">
<title>3</title>
<polygon fill="#ffa07a" stroke="none" points="148,-112.5 148,-133.25 230,-133.25 230,-112.5 148,-112.5"/>
<polygon fill="none" stroke="black" stroke-dasharray="5,2" points="148,-112.5 148,-133.25 230,-133.25 230,-112.5 148,-112.5"/>
<text text-anchor="start" x="156" y="-120.75" font-family="Courier,monospace" font-size="8.00">Partial:</text>
<text text-anchor="start" x="192" y="-120.75" font-family="Courier,monospace" font-size="10.00"> Adam</text>
<polygon fill="#eeeeee" stroke="none" stroke-dasharray="5,2" points="148,-91.75 148,-112.5 186,-112.5 186,-91.75 148,-91.75"/>
<polygon fill="none" stroke="black" points="148,-91.75 148,-112.5 186,-112.5 186,-91.75 148,-91.75"/>
<text text-anchor="start" x="170" y="-99" font-family="Courier,monospace" font-size="10.00">lr</text>
<polygon fill="none" stroke="black" points="186,-91.75 186,-112.5 230,-112.5 230,-91.75 186,-91.75"/>
<text text-anchor="start" x="190" y="-99" font-family="Courier,monospace" font-size="10.00">0.0001</text>
<polygon fill="#eeeeee" stroke="none" points="148,-71 148,-91.75 186,-91.75 186,-71 148,-71"/>
<polygon fill="none" stroke="black" points="148,-71 148,-91.75 186,-91.75 186,-71 148,-71"/>
<text text-anchor="start" x="152" y="-78.25" font-family="Courier,monospace" font-size="10.00">fused</text>
<polygon fill="none" stroke="black" points="186,-71 186,-91.75 230,-91.75 230,-71 186,-71"/>
<text text-anchor="start" x="190" y="-78.25" font-family="Courier,monospace" font-size="10.00">True</text>
</g>
<!-- 1&#45;&#45;3 -->
<g id="edge2" class="edge">
<title>1:c&#45;&#45;3:c</title>
<path fill="none" stroke="#cb8061" stroke-width="3" stroke-opacity="0.501961" d="M241.44,-279.51C235.13,-258.28 211.17,-177.68 197.93,-133.15"/>
</g>
<!-- 4 -->
<g id="node4" class="node">
<title>4</title>
<polygon fill="#add8e6" stroke="none" points="248,-122.88 248,-143.62 400,-143.62 400,-122.88 248,-122.88"/>
<polygon fill="none" stroke="black" stroke-dasharray="5,2" points="248,-122.88 248,-143.62 400,-143.62 400,-122.88 248,-122.88"/>
<text text-anchor="start" x="252" y="-131.12" font-family="Courier,monospace" font-size="8.00">Partial:</text>
<text text-anchor="start" x="288" y="-131.12" font-family="Courier,monospace" font-size="10.00"> ReduceLROnPlateau</text>
<polygon fill="#eeeeee" stroke="none" stroke-dasharray="5,2" points="248,-102.12 248,-122.88 333,-122.88 333,-102.12 248,-102.12"/>
<polygon fill="none" stroke="black" points="248,-102.12 248,-122.88 333,-122.88 333,-102.12 248,-102.12"/>
<text text-anchor="start" x="305" y="-109.38" font-family="Courier,monospace" font-size="10.00">mode</text>
<polygon fill="none" stroke="black" points="333,-102.12 333,-122.88 400,-122.88 400,-102.12 333,-102.12"/>
<text text-anchor="start" x="337" y="-109.38" font-family="Courier,monospace" font-size="10.00">&#39;min&#39;</text>
<polygon fill="#eeeeee" stroke="none" points="248,-81.38 248,-102.12 333,-102.12 333,-81.38 248,-81.38"/>
<polygon fill="none" stroke="black" points="248,-81.38 248,-102.12 333,-102.12 333,-81.38 248,-81.38"/>
<text text-anchor="start" x="293" y="-88.62" font-family="Courier,monospace" font-size="10.00">factor</text>
<polygon fill="none" stroke="black" points="333,-81.38 333,-102.12 400,-102.12 400,-81.38 333,-81.38"/>
<text text-anchor="start" x="337" y="-88.62" font-family="Courier,monospace" font-size="10.00">0.5</text>
<polygon fill="#eeeeee" stroke="none" points="248,-60.62 248,-81.38 333,-81.38 333,-60.62 248,-60.62"/>
<polygon fill="none" stroke="black" points="248,-60.62 248,-81.38 333,-81.38 333,-60.62 248,-60.62"/>
<text text-anchor="start" x="281" y="-67.88" font-family="Courier,monospace" font-size="10.00">patience</text>
<polygon fill="none" stroke="black" points="333,-60.62 333,-81.38 400,-81.38 400,-60.62 333,-60.62"/>
<text text-anchor="start" x="337" y="-67.88" font-family="Courier,monospace" font-size="10.00">10</text>
</g>
<!-- 1&#45;&#45;4 -->
<g id="edge3" class="edge">
<title>1:c&#45;&#45;4:c</title>
<path fill="none" stroke="#8aacb7" stroke-width="3" stroke-opacity="0.501961" d="M245.7,-258.65C254.59,-240.98 283.58,-183.4 303.68,-143.49"/>
</g>
<!-- 0 -->
<g id="node5" class="node">
<title>0</title>
<polygon fill="#ffc0cb" stroke="none" points="419.25,-562 419.25,-582.75 524.75,-582.75 524.75,-562 419.25,-562"/>
<polygon fill="none" stroke="black" points="419.25,-562 419.25,-582.75 524.75,-582.75 524.75,-562 419.25,-562"/>
<text text-anchor="start" x="423.25" y="-570.25" font-family="Courier,monospace" font-size="8.00">Config:</text>
<text text-anchor="start" x="454.75" y="-570.25" font-family="Courier,monospace" font-size="10.00"> Experiment</text>
<polygon fill="#eeeeee" stroke="none" points="419.25,-541.25 419.25,-562 495,-562 495,-541.25 419.25,-541.25"/>
<polygon fill="none" stroke="black" points="419.25,-541.25 419.25,-562 495,-562 495,-541.25 419.25,-541.25"/>
<text text-anchor="start" x="437" y="-548.5" font-family="Courier,monospace" font-size="10.00">pl_module</text>
<polygon fill="none" stroke="black" points="495,-541.25 495,-562 524.75,-562 524.75,-541.25 495,-541.25"/>
<polygon fill="#90ee90" stroke="none" points="499,-545.25 499,-558 520.75,-558 520.75,-545.25 499,-545.25"/>
<polygon fill="none" stroke="black" points="499,-545.25 499,-558 520.75,-558 520.75,-545.25 499,-545.25"/>
<polygon fill="#eeeeee" stroke="none" points="419.25,-520.5 419.25,-541.25 495,-541.25 495,-520.5 419.25,-520.5"/>
<polygon fill="none" stroke="black" points="419.25,-520.5 419.25,-541.25 495,-541.25 495,-520.5 419.25,-520.5"/>
<text text-anchor="start" x="467" y="-527.75" font-family="Courier,monospace" font-size="10.00">data</text>
<polygon fill="none" stroke="black" points="495,-520.5 495,-541.25 524.75,-541.25 524.75,-520.5 495,-520.5"/>
<polygon fill="#ff8c00" stroke="none" points="499,-524.5 499,-537.25 520.75,-537.25 520.75,-524.5 499,-524.5"/>
<polygon fill="none" stroke="black" points="499,-524.5 499,-537.25 520.75,-537.25 520.75,-524.5 499,-524.5"/>
<polygon fill="#eeeeee" stroke="none" points="419.25,-499.75 419.25,-520.5 495,-520.5 495,-499.75 419.25,-499.75"/>
<polygon fill="none" stroke="black" points="419.25,-499.75 419.25,-520.5 495,-520.5 495,-499.75 419.25,-499.75"/>
<text text-anchor="start" x="449" y="-507" font-family="Courier,monospace" font-size="10.00">trainer</text>
<polygon fill="none" stroke="black" points="495,-499.75 495,-520.5 524.75,-520.5 524.75,-499.75 495,-499.75"/>
<polygon fill="#adff2f" stroke="none" points="499,-503.75 499,-516.5 520.75,-516.5 520.75,-503.75 499,-503.75"/>
<polygon fill="none" stroke="black" points="499,-503.75 499,-516.5 520.75,-516.5 520.75,-503.75 499,-503.75"/>
</g>
<!-- 0&#45;&#45;1 -->
<g id="edge4" class="edge">
<title>0:c&#45;&#45;1:c</title>
<path fill="none" stroke="#73be73" stroke-width="3" stroke-opacity="0.501961" d="M501.59,-545.34C475.21,-528.52 390.7,-474.62 317.82,-428.14"/>
</g>
<!-- 5 -->
<g id="node7" class="node">
<title>5</title>
<polygon fill="#ff8c00" stroke="none" points="389,-443 389,-463.75 629,-463.75 629,-443 389,-443"/>
<polygon fill="none" stroke="black" points="389,-443 389,-463.75 629,-463.75 629,-443 389,-443"/>
<text text-anchor="start" x="430.25" y="-451.25" font-family="Courier,monospace" font-size="8.00">Config:</text>
<text text-anchor="start" x="461.75" y="-451.25" font-family="Courier,monospace" font-size="10.00"> SourceDataDataModule</text>
<polygon fill="#eeeeee" stroke="none" points="389,-422.25 389,-443 487,-443 487,-422.25 389,-422.25"/>
<polygon fill="none" stroke="black" points="389,-422.25 389,-443 487,-443 487,-422.25 389,-422.25"/>
<text text-anchor="start" x="393" y="-429.5" font-family="Courier,monospace" font-size="10.00">dataset_factory</text>
<polygon fill="none" stroke="black" points="487,-422.25 487,-443 629,-443 629,-422.25 487,-422.25"/>
<polygon fill="#8fbc8f" stroke="none" points="491,-426.25 491,-439 625,-439 625,-426.25 491,-426.25"/>
<polygon fill="none" stroke="black" stroke-dasharray="5,2" points="491,-426.25 491,-439 625,-439 625,-426.25 491,-426.25"/>
<polygon fill="#eeeeee" stroke="none" stroke-dasharray="5,2" points="389,-302.5 389,-422.25 487,-422.25 487,-302.5 389,-302.5"/>
<polygon fill="none" stroke="black" points="389,-302.5 389,-422.25 487,-422.25 487,-302.5 389,-302.5"/>
<text text-anchor="start" x="447" y="-359.25" font-family="Courier,monospace" font-size="10.00">splits</text>
<polygon fill="none" stroke="black" points="487,-302.5 487,-422.25 629,-422.25 629,-302.5 487,-302.5"/>
<polygon fill="#eeeeee" stroke="none" points="491,-397.5 491,-418.25 625,-418.25 625,-397.5 491,-397.5"/>
<polygon fill="none" stroke="black" points="491,-397.5 491,-418.25 625,-418.25 625,-397.5 491,-397.5"/>
<text text-anchor="start" x="546" y="-404.75" font-family="Courier,monospace" font-size="10.00">dict</text>
<polygon fill="#eeeeee" stroke="none" points="491,-306.5 491,-397.5 535,-397.5 535,-306.5 491,-306.5"/>
<polygon fill="none" stroke="black" points="491,-306.5 491,-397.5 535,-397.5 535,-306.5 491,-306.5"/>
<text text-anchor="start" x="495" y="-348.88" font-family="Courier,monospace" font-size="10.00">&#39;time&#39;</text>
<polygon fill="none" stroke="black" points="535,-306.5 535,-397.5 625,-397.5 625,-306.5 535,-306.5"/>
<polygon fill="#eeeeee" stroke="none" points="539,-372.75 539,-393.5 621,-393.5 621,-372.75 539,-372.75"/>
<polygon fill="none" stroke="black" points="539,-372.75 539,-393.5 621,-393.5 621,-372.75 539,-372.75"/>
<text text-anchor="start" x="568" y="-380" font-family="Courier,monospace" font-size="10.00">dict</text>
<polygon fill="#eeeeee" stroke="none" points="539,-352 539,-372.75 589,-372.75 589,-352 539,-352"/>
<polygon fill="none" stroke="black" points="539,-352 539,-372.75 589,-372.75 589,-352 539,-352"/>
<text text-anchor="start" x="543" y="-359.25" font-family="Courier,monospace" font-size="10.00">&#39;train&#39;</text>
<polygon fill="none" stroke="black" points="589,-352 589,-372.75 621,-372.75 621,-352 589,-352"/>
<text text-anchor="start" x="593" y="-359.25" font-family="Courier,monospace" font-size="10.00">0.7</text>
<polygon fill="#eeeeee" stroke="none" points="539,-331.25 539,-352 589,-352 589,-331.25 539,-331.25"/>
<polygon fill="none" stroke="black" points="539,-331.25 539,-352 589,-352 589,-331.25 539,-331.25"/>
<text text-anchor="start" x="555" y="-338.5" font-family="Courier,monospace" font-size="10.00">&#39;val&#39;</text>
<polygon fill="none" stroke="black" points="589,-331.25 589,-352 621,-352 621,-331.25 589,-331.25"/>
<text text-anchor="start" x="593" y="-338.5" font-family="Courier,monospace" font-size="10.00">0.15</text>
<polygon fill="#eeeeee" stroke="none" points="539,-310.5 539,-331.25 589,-331.25 589,-310.5 539,-310.5"/>
<polygon fill="none" stroke="black" points="539,-310.5 539,-331.25 589,-331.25 589,-310.5 539,-310.5"/>
<text text-anchor="start" x="549" y="-317.75" font-family="Courier,monospace" font-size="10.00">&#39;test&#39;</text>
<polygon fill="none" stroke="black" points="589,-310.5 589,-331.25 621,-331.25 621,-310.5 589,-310.5"/>
<text text-anchor="start" x="593" y="-317.75" font-family="Courier,monospace" font-size="10.00">0.15</text>
<polygon fill="#eeeeee" stroke="none" points="389,-281.75 389,-302.5 487,-302.5 487,-281.75 389,-281.75"/>
<polygon fill="none" stroke="black" points="389,-281.75 389,-302.5 487,-302.5 487,-281.75 389,-281.75"/>
<text text-anchor="start" x="423" y="-289" font-family="Courier,monospace" font-size="10.00">batch_size</text>
<polygon fill="none" stroke="black" points="487,-281.75 487,-302.5 629,-302.5 629,-281.75 487,-281.75"/>
<text text-anchor="start" x="491" y="-289" font-family="Courier,monospace" font-size="10.00">16</text>
<polygon fill="#eeeeee" stroke="none" points="389,-261 389,-281.75 487,-281.75 487,-261 389,-261"/>
<polygon fill="none" stroke="black" points="389,-261 389,-281.75 487,-281.75 487,-261 389,-261"/>
<text text-anchor="start" x="417" y="-268.25" font-family="Courier,monospace" font-size="10.00">num_workers</text>
<polygon fill="none" stroke="black" points="487,-261 487,-281.75 629,-281.75 629,-261 487,-261"/>
<text text-anchor="start" x="491" y="-268.25" font-family="Courier,monospace" font-size="10.00">8</text>
<polygon fill="#eeeeee" stroke="none" points="389,-240.25 389,-261 487,-261 487,-240.25 389,-240.25"/>
<polygon fill="none" stroke="black" points="389,-240.25 389,-261 487,-261 487,-240.25 389,-240.25"/>
<text text-anchor="start" x="423" y="-247.5" font-family="Courier,monospace" font-size="10.00">pin_memory</text>
<polygon fill="none" stroke="black" points="487,-240.25 487,-261 629,-261 629,-240.25 487,-240.25"/>
<text text-anchor="start" x="491" y="-247.5" font-family="Courier,monospace" font-size="10.00">True</text>
</g>
<!-- 0&#45;&#45;5 -->
<g id="edge6" class="edge">
<title>0:c&#45;&#45;5:c</title>
<path fill="none" stroke="#cb6f00" stroke-width="3" stroke-opacity="0.501961" d="M509.85,-524.77C509.8,-514.63 509.68,-490.59 509.55,-463.6"/>
</g>
<!-- 7 -->
<g id="node9" class="node">
<title>7</title>
<polygon fill="#adff2f" stroke="none" points="948,-399.88 948,-420.62 1094,-420.62 1094,-399.88 948,-399.88"/>
<polygon fill="none" stroke="black" points="948,-399.88 948,-420.62 1094,-420.62 1094,-399.88 948,-399.88"/>
<text text-anchor="start" x="981.25" y="-408.12" font-family="Courier,monospace" font-size="8.00">Config:</text>
<text text-anchor="start" x="1012.75" y="-408.12" font-family="Courier,monospace" font-size="10.00"> Trainer</text>
<polygon fill="#eeeeee" stroke="none" points="948,-379.12 948,-399.88 1022,-399.88 1022,-379.12 948,-379.12"/>
<polygon fill="none" stroke="black" points="948,-379.12 948,-399.88 1022,-399.88 1022,-379.12 948,-379.12"/>
<text text-anchor="start" x="952" y="-386.38" font-family="Courier,monospace" font-size="10.00">accelerator</text>
<polygon fill="none" stroke="black" points="1022,-379.12 1022,-399.88 1094,-399.88 1094,-379.12 1022,-379.12"/>
<text text-anchor="start" x="1026" y="-386.38" font-family="Courier,monospace" font-size="10.00">&#39;auto&#39;</text>
<polygon fill="#eeeeee" stroke="none" points="948,-358.38 948,-379.12 1022,-379.12 1022,-358.38 948,-358.38"/>
<polygon fill="none" stroke="black" points="948,-358.38 948,-379.12 1022,-379.12 1022,-358.38 948,-358.38"/>
<text text-anchor="start" x="982" y="-365.62" font-family="Courier,monospace" font-size="10.00">logger</text>
<polygon fill="none" stroke="black" points="1022,-358.38 1022,-379.12 1094,-379.12 1094,-358.38 1022,-358.38"/>
<polygon fill="#ff6347" stroke="none" points="1026,-362.38 1026,-375.12 1090,-375.12 1090,-362.38 1026,-362.38"/>
<polygon fill="none" stroke="black" points="1026,-362.38 1026,-375.12 1090,-375.12 1090,-362.38 1026,-362.38"/>
<polygon fill="#eeeeee" stroke="none" points="948,-304.12 948,-358.38 1022,-358.38 1022,-304.12 948,-304.12"/>
<polygon fill="none" stroke="black" points="948,-304.12 948,-358.38 1022,-358.38 1022,-304.12 948,-304.12"/>
<text text-anchor="start" x="964" y="-328.12" font-family="Courier,monospace" font-size="10.00">callbacks</text>
<polygon fill="none" stroke="black" points="1022,-304.12 1022,-358.38 1094,-358.38 1094,-304.12 1022,-304.12"/>
<polygon fill="#eeeeee" stroke="none" points="1026,-333.62 1026,-354.38 1090,-354.38 1090,-333.62 1026,-333.62"/>
<polygon fill="none" stroke="black" points="1026,-333.62 1026,-354.38 1090,-354.38 1090,-333.62 1026,-333.62"/>
<text text-anchor="start" x="1046" y="-340.88" font-family="Courier,monospace" font-size="10.00">list</text>
<polygon fill="none" stroke="black" points="1026,-317.62 1026,-333.62 1042,-333.62 1042,-317.62 1026,-317.62"/>
<polygon fill="#db7093" stroke="none" points="1030,-321.62 1030,-329.62 1038,-329.62 1038,-321.62 1030,-321.62"/>
<polygon fill="none" stroke="black" points="1030,-321.62 1030,-329.62 1038,-329.62 1038,-321.62 1030,-321.62"/>
<polygon fill="none" stroke="black" points="1042,-317.62 1042,-333.62 1058,-333.62 1058,-317.62 1042,-317.62"/>
<polygon fill="#f0e68c" stroke="none" points="1046,-321.62 1046,-329.62 1054,-329.62 1054,-321.62 1046,-321.62"/>
<polygon fill="none" stroke="black" points="1046,-321.62 1046,-329.62 1054,-329.62 1054,-321.62 1046,-321.62"/>
<polygon fill="none" stroke="black" points="1058,-317.62 1058,-333.62 1074,-333.62 1074,-317.62 1058,-317.62"/>
<polygon fill="#32cd32" stroke="none" points="1062,-321.62 1062,-329.62 1070,-329.62 1070,-321.62 1062,-321.62"/>
<polygon fill="none" stroke="black" points="1062,-321.62 1062,-329.62 1070,-329.62 1070,-321.62 1062,-321.62"/>
<polygon fill="none" stroke="black" points="1074,-317.62 1074,-333.62 1090,-333.62 1090,-317.62 1074,-317.62"/>
<polygon fill="#00bfff" stroke="none" points="1078,-321.62 1078,-329.62 1086,-329.62 1086,-321.62 1078,-321.62"/>
<polygon fill="none" stroke="black" points="1078,-321.62 1078,-329.62 1086,-329.62 1086,-321.62 1078,-321.62"/>
<polygon fill="#eeeeee" stroke="none" points="1026,-308.12 1026,-317.62 1042,-317.62 1042,-308.12 1026,-308.12"/>
<polygon fill="none" stroke="black" points="1026,-308.12 1026,-317.62 1042,-317.62 1042,-308.12 1026,-308.12"/>
<text text-anchor="start" x="1032.12" y="-310.93" font-family="Courier,monospace" font-size="6.00">0</text>
<polygon fill="#eeeeee" stroke="none" points="1042,-308.12 1042,-317.62 1058,-317.62 1058,-308.12 1042,-308.12"/>
<polygon fill="none" stroke="black" points="1042,-308.12 1042,-317.62 1058,-317.62 1058,-308.12 1042,-308.12"/>
<text text-anchor="start" x="1048.12" y="-310.93" font-family="Courier,monospace" font-size="6.00">1</text>
<polygon fill="#eeeeee" stroke="none" points="1058,-308.12 1058,-317.62 1074,-317.62 1074,-308.12 1058,-308.12"/>
<polygon fill="none" stroke="black" points="1058,-308.12 1058,-317.62 1074,-317.62 1074,-308.12 1058,-308.12"/>
<text text-anchor="start" x="1064.12" y="-310.93" font-family="Courier,monospace" font-size="6.00">2</text>
<polygon fill="#eeeeee" stroke="none" points="1074,-308.12 1074,-317.62 1090,-317.62 1090,-308.12 1074,-308.12"/>
<polygon fill="none" stroke="black" points="1074,-308.12 1074,-317.62 1090,-317.62 1090,-308.12 1074,-308.12"/>
<text text-anchor="start" x="1080.12" y="-310.93" font-family="Courier,monospace" font-size="6.00">3</text>
<polygon fill="#eeeeee" stroke="none" points="948,-283.38 948,-304.12 1022,-304.12 1022,-283.38 948,-283.38"/>
<polygon fill="none" stroke="black" points="948,-283.38 948,-304.12 1022,-304.12 1022,-283.38 948,-283.38"/>
<text text-anchor="start" x="958" y="-290.62" font-family="Courier,monospace" font-size="10.00">max_epochs</text>
<polygon fill="none" stroke="black" points="1022,-283.38 1022,-304.12 1094,-304.12 1094,-283.38 1022,-283.38"/>
<text text-anchor="start" x="1026" y="-290.62" font-family="Courier,monospace" font-size="10.00">100</text>
</g>
<!-- 0&#45;&#45;7 -->
<g id="edge12" class="edge">
<title>0:c&#45;&#45;7:c</title>
<path fill="none" stroke="#8acb25" stroke-width="3" stroke-opacity="0.501961" d="M520.55,-505.86C574.88,-489.27 823,-413.48 948.23,-375.23"/>
</g>
<!-- 6 -->
<g id="node6" class="node">
<title>6</title>
<polygon fill="#8fbc8f" stroke="none" points="418,-183.5 418,-204.25 698,-204.25 698,-183.5 418,-183.5"/>
<polygon fill="none" stroke="black" stroke-dasharray="5,2" points="418,-183.5 418,-204.25 698,-204.25 698,-183.5 418,-183.5"/>
<text text-anchor="start" x="429" y="-191.75" font-family="Courier,monospace" font-size="8.00">Partial:</text>
<text text-anchor="start" x="465" y="-191.75" font-family="Courier,monospace" font-size="10.00"> SourceDataPrecomputedSamplingDataset</text>
<polygon fill="#eeeeee" stroke="none" stroke-dasharray="5,2" points="418,-162.75 418,-183.5 510,-183.5 510,-162.75 418,-162.75"/>
<polygon fill="none" stroke="black" points="418,-162.75 418,-183.5 510,-183.5 510,-162.75 418,-162.75"/>
<text text-anchor="start" x="452" y="-170" font-family="Courier,monospace" font-size="10.00">zarr_path</text>
<polygon fill="none" stroke="black" points="510,-162.75 510,-183.5 698,-183.5 698,-162.75 510,-162.75"/>
<text text-anchor="start" x="514" y="-170" font-family="Courier,monospace" font-size="10.00">&#39;./data/radar.zarr&#39;</text>
<polygon fill="#eeeeee" stroke="none" points="418,-142 418,-162.75 510,-162.75 510,-142 418,-142"/>
<polygon fill="none" stroke="black" points="418,-142 418,-162.75 510,-162.75 510,-142 418,-142"/>
<text text-anchor="start" x="458" y="-149.25" font-family="Courier,monospace" font-size="10.00">csv_path</text>
<polygon fill="none" stroke="black" points="510,-142 510,-162.75 698,-162.75 698,-142 510,-142"/>
<text text-anchor="start" x="514" y="-149.25" font-family="Courier,monospace" font-size="10.00">&#39;./data/sampled_datacubes.csv&#39;</text>
<polygon fill="#eeeeee" stroke="none" points="418,-83 418,-142 510,-142 510,-83 418,-83"/>
<polygon fill="none" stroke="black" points="418,-83 418,-142 510,-142 510,-83 418,-83"/>
<text text-anchor="start" x="422" y="-109.38" font-family="Courier,monospace" font-size="10.00">standard_names</text>
<polygon fill="none" stroke="black" points="510,-83 510,-142 698,-142 698,-83 510,-83"/>
<polygon fill="#eeeeee" stroke="none" points="514,-117.25 514,-138 694,-138 694,-117.25 514,-117.25"/>
<polygon fill="none" stroke="black" points="514,-117.25 514,-138 694,-138 694,-117.25 514,-117.25"/>
<text text-anchor="start" x="592" y="-124.5" font-family="Courier,monospace" font-size="10.00">list</text>
<polygon fill="none" stroke="black" points="514,-96.5 514,-117.25 694,-117.25 694,-96.5 514,-96.5"/>
<text text-anchor="start" x="559" y="-103.75" font-family="Courier,monospace" font-size="10.00">&#39;rainfall_rate&#39;</text>
<polygon fill="#eeeeee" stroke="none" points="514,-87 514,-96.5 694,-96.5 694,-87 514,-87"/>
<polygon fill="none" stroke="black" points="514,-87 514,-96.5 694,-96.5 694,-87 514,-87"/>
<text text-anchor="start" x="602.12" y="-89.8" font-family="Courier,monospace" font-size="6.00">0</text>
<polygon fill="#eeeeee" stroke="none" points="418,-62.25 418,-83 510,-83 510,-62.25 418,-62.25"/>
<polygon fill="none" stroke="black" points="418,-62.25 418,-83 510,-83 510,-62.25 418,-62.25"/>
<text text-anchor="start" x="440" y="-69.5" font-family="Courier,monospace" font-size="10.00">input_steps</text>
<polygon fill="none" stroke="black" points="510,-62.25 510,-83 698,-83 698,-62.25 510,-62.25"/>
<text text-anchor="start" x="514" y="-69.5" font-family="Courier,monospace" font-size="10.00">6</text>
<polygon fill="#eeeeee" stroke="none" points="418,-41.5 418,-62.25 510,-62.25 510,-41.5 418,-41.5"/>
<polygon fill="none" stroke="black" points="418,-41.5 418,-62.25 510,-62.25 510,-41.5 418,-41.5"/>
<text text-anchor="start" x="422" y="-48.75" font-family="Courier,monospace" font-size="10.00">forecast_steps</text>
<polygon fill="none" stroke="black" points="510,-41.5 510,-62.25 698,-62.25 698,-41.5 510,-41.5"/>
<text text-anchor="start" x="514" y="-48.75" font-family="Courier,monospace" font-size="10.00">12</text>
<polygon fill="#eeeeee" stroke="none" points="418,-20.75 418,-41.5 510,-41.5 510,-20.75 418,-20.75"/>
<polygon fill="none" stroke="black" points="418,-20.75 418,-41.5 510,-41.5 510,-20.75 418,-20.75"/>
<text text-anchor="start" x="440" y="-28" font-family="Courier,monospace" font-size="10.00">return_mask</text>
<polygon fill="none" stroke="black" points="510,-20.75 510,-41.5 698,-41.5 698,-20.75 510,-20.75"/>
<text text-anchor="start" x="514" y="-28" font-family="Courier,monospace" font-size="10.00">True</text>
<polygon fill="#eeeeee" stroke="none" points="418,0 418,-20.75 510,-20.75 510,0 418,0"/>
<polygon fill="none" stroke="black" points="418,0 418,-20.75 510,-20.75 510,0 418,0"/>
<text text-anchor="start" x="428" y="-7.25" font-family="Courier,monospace" font-size="10.00">deterministic</text>
<polygon fill="none" stroke="black" points="510,0 510,-20.75 698,-20.75 698,0 510,0"/>
<text text-anchor="start" x="514" y="-7.25" font-family="Courier,monospace" font-size="10.00">False</text>
</g>
<!-- 5&#45;&#45;6 -->
<g id="edge5" class="edge">
<title>5:c&#45;&#45;6:c</title>
<path fill="none" stroke="#729672" stroke-width="3" stroke-opacity="0.501961" d="M558,-426.47C558,-401.32 558,-289.42 558,-204.24"/>
</g>
<!-- 8 -->
<g id="node8" class="node">
<title>8</title>
<polygon fill="#ff6347" stroke="none" points="1072.25,-112.5 1072.25,-133.25 1219.75,-133.25 1219.75,-112.5 1072.25,-112.5"/>
<polygon fill="none" stroke="black" points="1072.25,-112.5 1072.25,-133.25 1219.75,-133.25 1219.75,-112.5 1072.25,-112.5"/>
<text text-anchor="start" x="1076.25" y="-120.75" font-family="Courier,monospace" font-size="8.00">Config:</text>
<text text-anchor="start" x="1107.75" y="-120.75" font-family="Courier,monospace" font-size="10.00"> TensorBoardLogger</text>
<polygon fill="#eeeeee" stroke="none" points="1072.25,-91.75 1072.25,-112.5 1146,-112.5 1146,-91.75 1072.25,-91.75"/>
<polygon fill="none" stroke="black" points="1072.25,-91.75 1072.25,-112.5 1146,-112.5 1146,-91.75 1072.25,-91.75"/>
<text text-anchor="start" x="1094" y="-99" font-family="Courier,monospace" font-size="10.00">save_dir</text>
<polygon fill="none" stroke="black" points="1146,-91.75 1146,-112.5 1219.75,-112.5 1219.75,-91.75 1146,-91.75"/>
<text text-anchor="start" x="1150" y="-99" font-family="Courier,monospace" font-size="10.00">&#39;logs&#39;</text>
<polygon fill="#eeeeee" stroke="none" points="1072.25,-71 1072.25,-91.75 1146,-91.75 1146,-71 1072.25,-71"/>
<polygon fill="none" stroke="black" points="1072.25,-71 1072.25,-91.75 1146,-91.75 1146,-71 1072.25,-71"/>
<text text-anchor="start" x="1118" y="-78.25" font-family="Courier,monospace" font-size="10.00">name</text>
<polygon fill="none" stroke="black" points="1146,-71 1146,-91.75 1219.75,-91.75 1219.75,-71 1146,-71"/>
<text text-anchor="start" x="1150" y="-78.25" font-family="Courier,monospace" font-size="10.00">&#39;mlcast&#39;</text>
</g>
<!-- 7&#45;&#45;8 -->
<g id="edge7" class="edge">
<title>7:c&#45;&#45;8:c</title>
<path fill="none" stroke="#cb4f38" stroke-width="3" stroke-opacity="0.501961" d="M1059.68,-362.7C1069.07,-334.48 1115.35,-195.3 1136.01,-133.17"/>
</g>
<!-- 9 -->
<g id="node10" class="node">
<title>9</title>
<polygon fill="#db7093" stroke="none" points="716,-122.88 716,-143.62 852,-143.62 852,-122.88 716,-122.88"/>
<polygon fill="none" stroke="black" points="716,-122.88 716,-143.62 852,-143.62 852,-122.88 716,-122.88"/>
<text text-anchor="start" x="720.25" y="-131.12" font-family="Courier,monospace" font-size="8.00">Config:</text>
<text text-anchor="start" x="751.75" y="-131.12" font-family="Courier,monospace" font-size="10.00"> ModelCheckpoint</text>
<polygon fill="#eeeeee" stroke="none" points="716,-102.12 716,-122.88 784,-122.88 784,-102.12 716,-102.12"/>
<polygon fill="none" stroke="black" points="716,-102.12 716,-122.88 784,-122.88 784,-102.12 716,-102.12"/>
<text text-anchor="start" x="738" y="-109.38" font-family="Courier,monospace" font-size="10.00">monitor</text>
<polygon fill="none" stroke="black" points="784,-102.12 784,-122.88 852,-122.88 852,-102.12 784,-102.12"/>
<text text-anchor="start" x="788" y="-109.38" font-family="Courier,monospace" font-size="10.00">&#39;val_loss&#39;</text>
<polygon fill="#eeeeee" stroke="none" points="716,-81.38 716,-102.12 784,-102.12 784,-81.38 716,-81.38"/>
<polygon fill="none" stroke="black" points="716,-81.38 716,-102.12 784,-102.12 784,-81.38 716,-81.38"/>
<text text-anchor="start" x="720" y="-88.62" font-family="Courier,monospace" font-size="10.00">save_top_k</text>
<polygon fill="none" stroke="black" points="784,-81.38 784,-102.12 852,-102.12 852,-81.38 784,-81.38"/>
<text text-anchor="start" x="788" y="-88.62" font-family="Courier,monospace" font-size="10.00">1</text>
<polygon fill="#eeeeee" stroke="none" points="716,-60.62 716,-81.38 784,-81.38 784,-60.62 716,-60.62"/>
<polygon fill="none" stroke="black" points="716,-60.62 716,-81.38 784,-81.38 784,-60.62 716,-60.62"/>
<text text-anchor="start" x="756" y="-67.88" font-family="Courier,monospace" font-size="10.00">mode</text>
<polygon fill="none" stroke="black" points="784,-60.62 784,-81.38 852,-81.38 852,-60.62 784,-60.62"/>
<text text-anchor="start" x="788" y="-67.88" font-family="Courier,monospace" font-size="10.00">&#39;min&#39;</text>
</g>
<!-- 7&#45;&#45;9 -->
<g id="edge8" class="edge">
<title>7:c&#45;&#45;9:c</title>
<path fill="none" stroke="#af5975" stroke-width="3" stroke-opacity="0.501961" d="M1030.15,-322.55C1010.61,-311.92 920.98,-261.71 861,-204.25 842.04,-186.08 824.07,-162.96 810.26,-143.4"/>
</g>
<!-- 10 -->
<g id="node11" class="node">
<title>10</title>
<polygon fill="#f0e68c" stroke="none" points="870,-122.88 870,-143.62 1054,-143.62 1054,-122.88 870,-122.88"/>
<polygon fill="none" stroke="black" points="870,-122.88 870,-143.62 1054,-143.62 1054,-122.88 870,-122.88"/>
<text text-anchor="start" x="898.25" y="-131.12" font-family="Courier,monospace" font-size="8.00">Config:</text>
<text text-anchor="start" x="929.75" y="-131.12" font-family="Courier,monospace" font-size="10.00"> ModelCheckpoint</text>
<polygon fill="#eeeeee" stroke="none" points="870,-102.12 870,-122.88 938,-122.88 938,-102.12 870,-102.12"/>
<polygon fill="none" stroke="black" points="870,-102.12 870,-122.88 938,-122.88 938,-102.12 870,-102.12"/>
<text text-anchor="start" x="892" y="-109.38" font-family="Courier,monospace" font-size="10.00">monitor</text>
<polygon fill="none" stroke="black" points="938,-102.12 938,-122.88 1054,-122.88 1054,-102.12 938,-102.12"/>
<text text-anchor="start" x="942" y="-109.38" font-family="Courier,monospace" font-size="10.00">&#39;train_loss_epoch&#39;</text>
<polygon fill="#eeeeee" stroke="none" points="870,-81.38 870,-102.12 938,-102.12 938,-81.38 870,-81.38"/>
<polygon fill="none" stroke="black" points="870,-81.38 870,-102.12 938,-102.12 938,-81.38 870,-81.38"/>
<text text-anchor="start" x="874" y="-88.62" font-family="Courier,monospace" font-size="10.00">save_top_k</text>
<polygon fill="none" stroke="black" points="938,-81.38 938,-102.12 1054,-102.12 1054,-81.38 938,-81.38"/>
<text text-anchor="start" x="942" y="-88.62" font-family="Courier,monospace" font-size="10.00">1</text>
<polygon fill="#eeeeee" stroke="none" points="870,-60.62 870,-81.38 938,-81.38 938,-60.62 870,-60.62"/>
<polygon fill="none" stroke="black" points="870,-60.62 870,-81.38 938,-81.38 938,-60.62 870,-60.62"/>
<text text-anchor="start" x="910" y="-67.88" font-family="Courier,monospace" font-size="10.00">mode</text>
<polygon fill="none" stroke="black" points="938,-60.62 938,-81.38 1054,-81.38 1054,-60.62 938,-60.62"/>
<text text-anchor="start" x="942" y="-67.88" font-family="Courier,monospace" font-size="10.00">&#39;min&#39;</text>
</g>
<!-- 7&#45;&#45;10 -->
<g id="edge9" class="edge">
<title>7:c&#45;&#45;10:c</title>
<path fill="none" stroke="#bfb770" stroke-width="3" stroke-opacity="0.501961" d="M1048.89,-321.82C1041.67,-303.65 1001.01,-201.31 977.96,-143.29"/>
</g>
<!-- 11 -->
<g id="node12" class="node">
<title>11</title>
<polygon fill="#32cd32" stroke="none" points="1238,-122.88 1238,-143.62 1362,-143.62 1362,-122.88 1238,-122.88"/>
<polygon fill="none" stroke="black" points="1238,-122.88 1238,-143.62 1362,-143.62 1362,-122.88 1238,-122.88"/>
<text text-anchor="start" x="1242.25" y="-131.12" font-family="Courier,monospace" font-size="8.00">Config:</text>
<text text-anchor="start" x="1273.75" y="-131.12" font-family="Courier,monospace" font-size="10.00"> EarlyStopping</text>
<polygon fill="#eeeeee" stroke="none" points="1238,-102.12 1238,-122.88 1294,-122.88 1294,-102.12 1238,-102.12"/>
<polygon fill="none" stroke="black" points="1238,-102.12 1238,-122.88 1294,-122.88 1294,-102.12 1238,-102.12"/>
<text text-anchor="start" x="1248" y="-109.38" font-family="Courier,monospace" font-size="10.00">monitor</text>
<polygon fill="none" stroke="black" points="1294,-102.12 1294,-122.88 1362,-122.88 1362,-102.12 1294,-102.12"/>
<text text-anchor="start" x="1298" y="-109.38" font-family="Courier,monospace" font-size="10.00">&#39;val_loss&#39;</text>
<polygon fill="#eeeeee" stroke="none" points="1238,-81.38 1238,-102.12 1294,-102.12 1294,-81.38 1238,-81.38"/>
<polygon fill="none" stroke="black" points="1238,-81.38 1238,-102.12 1294,-102.12 1294,-81.38 1238,-81.38"/>
<text text-anchor="start" x="1242" y="-88.62" font-family="Courier,monospace" font-size="10.00">patience</text>
<polygon fill="none" stroke="black" points="1294,-81.38 1294,-102.12 1362,-102.12 1362,-81.38 1294,-81.38"/>
<text text-anchor="start" x="1298" y="-88.62" font-family="Courier,monospace" font-size="10.00">100</text>
<polygon fill="#eeeeee" stroke="none" points="1238,-60.62 1238,-81.38 1294,-81.38 1294,-60.62 1238,-60.62"/>
<polygon fill="none" stroke="black" points="1238,-60.62 1238,-81.38 1294,-81.38 1294,-60.62 1238,-60.62"/>
<text text-anchor="start" x="1266" y="-67.88" font-family="Courier,monospace" font-size="10.00">mode</text>
<polygon fill="none" stroke="black" points="1294,-60.62 1294,-81.38 1362,-81.38 1362,-60.62 1294,-60.62"/>
<text text-anchor="start" x="1298" y="-67.88" font-family="Courier,monospace" font-size="10.00">&#39;min&#39;</text>
</g>
<!-- 7&#45;&#45;11 -->
<g id="edge10" class="edge">
<title>7:c&#45;&#45;11:c</title>
<path fill="none" stroke="#28a328" stroke-width="3" stroke-opacity="0.501961" d="M1069.9,-322.4C1088.95,-311.4 1173.46,-261.14 1229,-204.25 1246.83,-185.98 1263.43,-162.85 1276.08,-143.32"/>
</g>
<!-- 12 -->
<g id="node13" class="node">
<title>12</title>
<polygon fill="#00bfff" stroke="none" points="1380.25,-102.12 1380.25,-122.88 1539.75,-122.88 1539.75,-102.12 1380.25,-102.12"/>
<polygon fill="none" stroke="black" points="1380.25,-102.12 1380.25,-122.88 1539.75,-122.88 1539.75,-102.12 1380.25,-102.12"/>
<text text-anchor="start" x="1384.25" y="-110.38" font-family="Courier,monospace" font-size="8.00">Config:</text>
<text text-anchor="start" x="1415.75" y="-110.38" font-family="Courier,monospace" font-size="10.00"> LearningRateMonitor</text>
<polygon fill="#eeeeee" stroke="none" points="1380.25,-81.38 1380.25,-102.12 1490,-102.12 1490,-81.38 1380.25,-81.38"/>
<polygon fill="none" stroke="black" points="1380.25,-81.38 1380.25,-102.12 1490,-102.12 1490,-81.38 1380.25,-81.38"/>
<text text-anchor="start" x="1390" y="-88.62" font-family="Courier,monospace" font-size="10.00">logging_interval</text>
<polygon fill="none" stroke="black" points="1490,-81.38 1490,-102.12 1539.75,-102.12 1539.75,-81.38 1490,-81.38"/>
<text text-anchor="start" x="1494" y="-88.62" font-family="Courier,monospace" font-size="10.00">&#39;step&#39;</text>
</g>
<!-- 7&#45;&#45;12 -->
<g id="edge11" class="edge">
<title>7:c&#45;&#45;12:c</title>
<path fill="none" stroke="#0098cb" stroke-width="3" stroke-opacity="0.501961" d="M1085.75,-323.75C1111.77,-317.56 1267.63,-278.34 1371,-204.25 1402.94,-181.36 1431.28,-144.96 1447,-122.64"/>
</g>
</g>
</svg>
